<svg width="200" height="200" viewBox="0 0 200 200" fill="none" xmlns="http://www.w3.org/2000/svg">
<path d="M33.3332 33.3334H58.3332L74.9998 16.6667H125L141.667 33.3334H166.667C171.087 33.3334 175.326 35.0894 178.452 38.215C181.577 41.3406 183.333 45.5798 183.333 50.0001V150C183.333 154.42 181.577 158.66 178.452 161.785C175.326 164.911 171.087 166.667 166.667 166.667H33.3332C28.9129 166.667 24.6737 164.911 21.5481 161.785C18.4225 158.66 16.6665 154.42 16.6665 150V50.0001C16.6665 45.5798 18.4225 41.3406 21.5481 38.215C24.6737 35.0894 28.9129 33.3334 33.3332 33.3334ZM99.9998 58.3334C88.9492 58.3334 78.3511 62.7233 70.5371 70.5373C62.723 78.3513 58.3332 88.9494 58.3332 100C58.3332 111.051 62.723 121.649 70.5371 129.463C78.3511 137.277 88.9492 141.667 99.9998 141.667C111.051 141.667 121.649 137.277 129.463 129.463C137.277 121.649 141.667 111.051 141.667 100C141.667 88.9494 137.277 78.3513 129.463 70.5373C121.649 62.7233 111.051 58.3334 99.9998 58.3334ZM99.9998 75.0001C106.63 75.0001 112.989 77.634 117.678 82.3224C122.366 87.0108 125 93.3697 125 100C125 106.63 122.366 112.989 117.678 117.678C112.989 122.366 106.63 125 99.9998 125C93.3694 125 87.0106 122.366 82.3222 117.678C77.6338 112.989 74.9998 106.63 74.9998 100C74.9998 93.3697 77.6338 87.0108 82.3222 82.3224C87.0106 77.634 93.3694 75.0001 99.9998 75.0001Z" fill="#A2A2A2"/>
</svg>
