<svg width="67" height="67" viewBox="0 0 67 67" fill="none" xmlns="http://www.w3.org/2000/svg">
<path d="M24.3333 66.6667L23 56C22.2778 55.7222 21.5978 55.3889 20.96 55C20.32 54.6111 19.6944 54.1944 19.0833 53.75L9.16667 57.9167L0 42.0833L8.58333 35.5833C8.52778 35.1944 8.5 34.8189 8.5 34.4567V32.2067C8.5 31.8467 8.52778 31.4722 8.58333 31.0833L0 24.5833L9.16667 8.75L19.0833 12.9167C19.6944 12.4722 20.3333 12.0556 21 11.6667C21.6667 11.2778 22.3333 10.9444 23 10.6667L24.3333 0H42.6667L44 10.6667C44.7222 10.9444 45.4033 11.2778 46.0433 11.6667C46.6811 12.0556 47.3056 12.4722 47.9167 12.9167L57.8333 8.75L67 24.5833L58.4167 31.0833C58.4722 31.4722 58.5 31.8467 58.5 32.2067V34.4567C58.5 34.8189 58.4444 35.1944 58.3333 35.5833L66.9167 42.0833L57.75 57.9167L47.9167 53.75C47.3056 54.1944 46.6667 54.6111 46 55C45.3333 55.3889 44.6667 55.7222 44 56L42.6667 66.6667H24.3333ZM33.6667 45C36.8889 45 39.6389 43.8611 41.9167 41.5833C44.1944 39.3056 45.3333 36.5556 45.3333 33.3333C45.3333 30.1111 44.1944 27.3611 41.9167 25.0833C39.6389 22.8056 36.8889 21.6667 33.6667 21.6667C30.3889 21.6667 27.6244 22.8056 25.3733 25.0833C23.1244 27.3611 22 30.1111 22 33.3333C22 36.5556 23.1244 39.3056 25.3733 41.5833C27.6244 43.8611 30.3889 45 33.6667 45Z" fill="white"/>
</svg>
