<svg width="40" height="40" viewBox="0 0 40 40" fill="none" xmlns="http://www.w3.org/2000/svg">
<path d="M20 0C14.6957 0 9.60859 2.10714 5.85786 5.85786C2.10714 9.60859 0 14.6957 0 20C0 25.3043 2.10714 30.3914 5.85786 34.1421C9.60859 37.8929 14.6957 40 20 40C25.3043 40 30.3914 37.8929 34.1421 34.1421C37.8929 30.3914 40 25.3043 40 20C40 14.6957 37.8929 9.60859 34.1421 5.85786C30.3914 2.10714 25.3043 0 20 0ZM27.6889 26.5556C27.6889 29.8222 25.9111 33.8889 18.6667 37C19.3333 27.7333 13.0667 28.8 11.5556 25.8889C11.6932 24.6846 12.1317 23.5342 12.8308 22.5439C13.5298 21.5536 14.4668 20.7552 15.5556 20.2222C12.107 19.6307 8.89095 18.0919 6.26667 15.7778C6.37778 16.8222 6.88667 17.7867 7.68889 18.4667C5.95091 17.8116 4.44924 16.6505 3.37778 15.1333C4.43728 11.6364 6.55627 8.55472 9.44217 6.31367C12.3281 4.07261 15.8385 2.78277 19.4889 2.62222C17.6222 5.68889 16.1556 11.8 19.4889 15C16.0667 15.5556 13.9111 11.1111 12.0222 12.8667C9.51111 15.2222 12.7556 18.4444 19.6222 19.7111C26.9333 21.0222 27.7556 23.2222 27.6889 26.5556ZM30.6667 17.6667C29.9556 15.2 32.0444 12.7111 34.4222 10.6889C35.9072 12.8294 36.8525 15.2972 37.1775 17.882C37.5025 20.4668 37.1977 23.0918 36.2889 25.5333C34.5778 21.3333 31.4667 20.3778 30.6667 17.6V17.6667Z" fill="url(#paint0_linear_4_14)"/>
<defs>
<linearGradient id="paint0_linear_4_14" x1="40" y1="1.77778" x2="1.77778" y2="43.5556" gradientUnits="userSpaceOnUse">
<stop stop-color="#FDB913"/>
<stop offset="1" stop-color="#840029"/>
</linearGradient>
</defs>
</svg>
